<svg width="1200" height="900" viewBox="0 0 1200 900" fill="none" xmlns="http://www.w3.org/2000/svg">
  <defs>
    <linearGradient id="g1" x1="0" y1="0" x2="1" y2="1">
      <stop offset="0" stop-color="#0F2A46"/>
      <stop offset="1" stop-color="#1F4E7A"/>
    </linearGradient>
    <linearGradient id="g2" x1="0" y1="0" x2="1" y2="0">
      <stop offset="0" stop-color="#C9A24E" stop-opacity="0.95"/>
      <stop offset="1" stop-color="#F2D38A" stop-opacity="0.95"/>
    </linearGradient>
    <filter id="shadow" x="-20" y="-20" width="1240" height="940" filterUnits="userSpaceOnUse">
      <feDropShadow dx="0" dy="16" stdDeviation="18" flood-color="#000000" flood-opacity="0.22"/>
    </filter>
  </defs>

  <rect x="0" y="0" width="1200" height="900" rx="48" fill="#F5F7FA"/>
  <path d="M0 260C180 190 340 180 520 220C720 268 860 328 1200 240V900H0V260Z" fill="url(#g1)" opacity="0.95"/>

  <g filter="url(#shadow)">
    <rect x="130" y="120" width="940" height="520" rx="28" fill="white"/>
    <rect x="170" y="160" width="360" height="18" rx="9" fill="#E7EDF5"/>
    <rect x="170" y="195" width="300" height="14" rx="7" fill="#EFF3F8"/>
    <rect x="170" y="225" width="420" height="14" rx="7" fill="#EFF3F8"/>

    <!-- simplified skyline / buildings -->
    <rect x="180" y="320" width="150" height="250" rx="10" fill="#0F2A46" opacity="0.9"/>
    <rect x="350" y="280" width="190" height="290" rx="10" fill="#173B5C" opacity="0.95"/>
    <rect x="560" y="300" width="160" height="270" rx="10" fill="#1F4E7A" opacity="0.95"/>
    <rect x="740" y="260" width="220" height="310" rx="10" fill="#13324E" opacity="0.95"/>

    <!-- windows -->
    <g opacity="0.28" fill="white">
      <rect x="205" y="350" width="30" height="22" rx="4"/>
      <rect x="245" y="350" width="30" height="22" rx="4"/>
      <rect x="285" y="350" width="30" height="22" rx="4"/>
      <rect x="205" y="385" width="30" height="22" rx="4"/>
      <rect x="245" y="385" width="30" height="22" rx="4"/>
      <rect x="285" y="385" width="30" height="22" rx="4"/>
      <rect x="385" y="315" width="32" height="24" rx="4"/>
      <rect x="427" y="315" width="32" height="24" rx="4"/>
      <rect x="469" y="315" width="32" height="24" rx="4"/>
      <rect x="385" y="352" width="32" height="24" rx="4"/>
      <rect x="427" y="352" width="32" height="24" rx="4"/>
      <rect x="469" y="352" width="32" height="24" rx="4"/>
      <rect x="590" y="330" width="30" height="22" rx="4"/>
      <rect x="630" y="330" width="30" height="22" rx="4"/>
      <rect x="670" y="330" width="30" height="22" rx="4"/>
      <rect x="770" y="292" width="34" height="24" rx="4"/>
      <rect x="814" y="292" width="34" height="24" rx="4"/>
      <rect x="858" y="292" width="34" height="24" rx="4"/>
      <rect x="770" y="330" width="34" height="24" rx="4"/>
      <rect x="814" y="330" width="34" height="24" rx="4"/>
      <rect x="858" y="330" width="34" height="24" rx="4"/>
    </g>

    <!-- accent bar -->
    <rect x="170" y="590" width="360" height="14" rx="7" fill="url(#g2)"/>
    <rect x="170" y="615" width="520" height="12" rx="6" fill="#E9EEF5"/>
  </g>

  <circle cx="1000" cy="155" r="58" fill="url(#g2)" opacity="0.9"/>
  <circle cx="1035" cy="160" r="10" fill="#0F2A46" opacity="0.55"/>
</svg>



