<svg width="1600" height="1200" viewBox="0 0 1600 1200" fill="none" xmlns="http://www.w3.org/2000/svg">
  <defs>
    <linearGradient id="sky" x1="0" y1="0" x2="0" y2="1">
      <stop offset="0" stop-color="#F6F8FC"/>
      <stop offset="1" stop-color="#EEF3FA"/>
    </linearGradient>
    <linearGradient id="glass" x1="0" y1="0" x2="1" y2="1">
      <stop offset="0" stop-color="#0F2A46" stop-opacity="0.12"/>
      <stop offset="1" stop-color="#0F2A46" stop-opacity="0.02"/>
    </linearGradient>
    <linearGradient id="gold" x1="0" y1="0" x2="1" y2="0">
      <stop offset="0" stop-color="#C9A24E"/>
      <stop offset="1" stop-color="#F0D08A"/>
    </linearGradient>
  </defs>

  <rect width="1600" height="1200" rx="48" fill="url(#sky)"/>

  <!-- floor -->
  <path d="M0 860C340 790 520 780 760 820C1040 868 1240 940 1600 860V1200H0V860Z" fill="#0F2A46" fill-opacity="0.04"/>

  <!-- buildings (abstract, photo-like blocks) -->
  <g>
    <rect x="220" y="360" width="260" height="620" rx="18" fill="url(#glass)"/>
    <rect x="520" y="270" width="330" height="710" rx="18" fill="url(#glass)"/>
    <rect x="900" y="320" width="250" height="660" rx="18" fill="url(#glass)"/>
    <rect x="1180" y="240" width="200" height="740" rx="18" fill="url(#glass)"/>

    <!-- subtle window grid -->
    <g fill="#0F2A46" fill-opacity="0.08">
      <path d="M260 420H440V440H260V420Z"/>
      <path d="M260 470H440V490H260V470Z"/>
      <path d="M260 520H440V540H260V520Z"/>
      <path d="M260 570H440V590H260V570Z"/>
      <path d="M560 330H810V350H560V330Z"/>
      <path d="M560 380H810V400H560V380Z"/>
      <path d="M560 430H810V450H560V430Z"/>
      <path d="M560 480H810V500H560V480Z"/>
      <path d="M560 530H810V550H560V530Z"/>
      <path d="M940 380H1110V400H940V380Z"/>
      <path d="M940 430H1110V450H940V430Z"/>
      <path d="M940 480H1110V500H940V480Z"/>
      <path d="M1210 300H1340V320H1210V300Z"/>
      <path d="M1210 350H1340V370H1210V350Z"/>
      <path d="M1210 400H1340V420H1210V400Z"/>
    </g>
  </g>

  <!-- gold accent line -->
  <path d="M190 1030C520 980 760 980 1000 1010C1200 1035 1350 1075 1410 1110" stroke="url(#gold)" stroke-width="12" stroke-linecap="round"/>

  <!-- placeholder label -->
  <g>
    <rect x="90" y="80" width="420" height="70" rx="14" fill="white" fill-opacity="0.75" stroke="#0F2A46" stroke-opacity="0.08"/>
    <text x="120" y="126" font-family="ui-sans-serif, system-ui, -apple-system, Segoe UI, Roboto" font-size="24" fill="#0F2A46" fill-opacity="0.6">
      Hero image placeholder
    </text>
  </g>
</svg>



